<svg width="240" height="142" fill="none" xmlns="http://www.w3.org/2000/svg"><g filter="url('#filter0_d_638_294')"><path d="M38 68c0-16.569 13.431-30 30-30h100c16.569 0 30 13.431 30 30v2c0 16.569-13.431 30-30 30H68c-16.569 0-30-13.431-30-30v-2Z" fill="#0886A1"/><path d="M68 38.5h100c16.292 0 29.5 13.208 29.5 29.5v2c0 16.292-13.208 29.5-29.5 29.5H68c-16.292 0-29.5-13.208-29.5-29.5v-2c0-16.292 13.208-29.5 29.5-29.5Z" stroke="#F2FDFF"/></g><defs><filter id="filter0_d_638_294" x="0" y="0" width="240" height="142" filterUnits="userSpaceOnUse" color-interpolation-filters="sRGB"><feFlood flood-opacity="0" result="BackgroundImageFix"/><feColorMatrix in="SourceAlpha" values="0 0 0 0 0 0 0 0 0 0 0 0 0 0 0 0 0 0 127 0" result="hardAlpha"/><feOffset dx="2" dy="2"/><feGaussianBlur stdDeviation="20"/><feComposite in2="hardAlpha" operator="out"/><feColorMatrix values="0 0 0 0 0.145833 0 0 0 0 0.857637 0 0 0 0 1 0 0 0 1 0"/><feBlend in2="BackgroundImageFix" result="effect1_dropShadow_638_294"/><feBlend in="SourceGraphic" in2="effect1_dropShadow_638_294" result="shape"/></filter></defs></svg>