<svg width="357" height="407" fill="none" xmlns="http://www.w3.org/2000/svg"><g filter="url('#filter0_b_607_10')"><path d="M0 30C0 13.431 13.431 0 30 0h297c16.569 0 30 13.431 30 30v347c0 16.569-13.431 30-30 30H30c-16.569 0-30-13.431-30-30V30Z" fill="#10778D"/><path d="M30 .5h297c16.292 0 29.5 13.208 29.5 29.5v347c0 16.292-13.208 29.5-29.5 29.5H30C13.708 406.5.5 393.292.5 377V30C.5 13.708 13.708.5 30 .5Z" stroke="#000"/></g><defs><filter id="filter0_b_607_10" x="-4" y="-4" width="365" height="415" filterUnits="userSpaceOnUse" color-interpolation-filters="sRGB"><feFlood flood-opacity="0" result="BackgroundImageFix"/><feGaussianBlur in="BackgroundImageFix" stdDeviation="2"/><feComposite in2="SourceAlpha" operator="in" result="effect1_backgroundBlur_607_10"/><feBlend in="SourceGraphic" in2="effect1_backgroundBlur_607_10" result="shape"/></filter></defs></svg>